<?xml version="1.0"?>
<svg width="500" height="500" xmlns="http://www.w3.org/2000/svg" xmlns:svg="http://www.w3.org/2000/svg" enable-background="new 0 0 500 500" version="1.1" xml:space="preserve">
 <g class="layer">
  <title>Layer 1</title>
  <path clip-rule="evenodd" d="m30.62,195.31c0,-9.91 8.22,-17.99 18.26,-17.99c5.01,0 88.33,48.71 91.62,51.98l0.09,-0.06l-0.42,-33.93c0,-9.91 8.23,-17.99 18.27,-17.99c5.01,0 88.32,48.71 91.62,51.98l0.09,-0.06l-0.42,-33.93c0,-9.91 8.22,-17.99 18.26,-17.99c5.02,0 88.33,48.71 91.62,51.98l0.91,0.56l17.02,-177.92c0,-11.08 8.94,-19.99 20.09,-19.99l32.86,0c11.13,0 20.09,8.91 20.09,19.99l18.26,379.77c0,20.08 -16.34,36.34 -36.52,36.34l-365.17,0c-20.18,0 -36.52,-16.26 -36.52,-36.34l0,-236.4zm264.08,86.36l0.67,76.87c0,9.36 7.67,16.99 17.07,16.99l20.63,0c9.41,0 17.07,-7.63 17.07,-16.99l-0.98,-76.73c0,-9.36 -7.67,-16.99 -17.07,-16.99l-20.63,-0.18c-9.41,0 -16.76,7.67 -16.76,17.03zm-109.42,-0.35l0.53,77.22c0,9.36 7.67,16.99 17.07,16.99l20.63,0c9.41,0 17.07,-7.63 17.07,-16.99l-0.67,-77.22c0,-9.36 -7.84,-16.99 -17.25,-16.99l-20.63,0c-9.41,0 -16.76,7.63 -16.76,16.99zm-109.55,-0.94l0.53,78.16c0,9.36 7.67,16.99 17.07,16.99l20.63,0c9.41,0 17.07,-7.63 17.07,-16.99l-0.53,-77.85c0,-9.36 -7.67,-17.3 -17.07,-17.3l-20.63,0c-9.41,0 -17.07,7.63 -17.07,16.99z" fill="#010101" fill-rule="evenodd" id="svg_1"/>
 </g>

</svg>